<svg width="17" height="10" viewBox="0 0 17 10" fill="none" xmlns="http://www.w3.org/2000/svg">
<path d="M16.4534 1.53068L8.95341 9.03068C8.88375 9.10041 8.80103 9.15573 8.70999 9.19347C8.61894 9.23121 8.52134 9.25064 8.42278 9.25064C8.32422 9.25064 8.22662 9.23121 8.13558 9.19347C8.04453 9.15573 7.96181 9.10041 7.89215 9.03068L0.392155 1.53068C0.251425 1.38995 0.172363 1.19907 0.172363 1.00005C0.172363 0.801028 0.251425 0.610156 0.392155 0.469425C0.532886 0.328695 0.723757 0.249634 0.92278 0.249634C1.1218 0.249634 1.31267 0.328695 1.45341 0.469425L8.42278 7.43974L15.3922 0.469425C15.4618 0.399743 15.5446 0.344468 15.6356 0.306756C15.7267 0.269044 15.8242 0.249634 15.9228 0.249634C16.0213 0.249634 16.1189 0.269044 16.21 0.306756C16.301 0.344468 16.3837 0.399743 16.4534 0.469425C16.5231 0.539108 16.5784 0.621834 16.6161 0.712878C16.6538 0.803923 16.6732 0.901505 16.6732 1.00005C16.6732 1.0986 16.6538 1.19618 16.6161 1.28722C16.5784 1.37827 16.5231 1.46099 16.4534 1.53068Z" fill="#585858"/>
</svg>
