<svg width="92" height="20" viewBox="0 0 92 20" fill="none" xmlns="http://www.w3.org/2000/svg">
<path d="M1.9515 19.4729C1.44555 19.4729 0.993818 19.2832 0.596291 18.9037C0.198764 18.5243 0 18.0635 0 17.5214V2.4515C0 1.92749 0.198764 1.47575 0.596291 1.09629C0.993818 0.698764 1.44555 0.5 1.9515 0.5H8.10414C8.66429 0.5 9.12506 0.698764 9.48645 1.09629C9.86591 1.47575 10.0556 1.92749 10.0556 2.4515V5.97504L7.53495 6.54422V3.99643C7.53495 3.74346 7.4446 3.51759 7.26391 3.31883C7.10128 3.12007 6.87542 3.02068 6.58631 3.02068H3.49643C3.24346 3.02068 3.01759 3.12007 2.81883 3.31883C2.62007 3.51759 2.52068 3.74346 2.52068 3.99643V15.9765C2.52068 16.2656 2.62007 16.5005 2.81883 16.6812C3.01759 16.8619 3.24346 16.9522 3.49643 16.9522H6.58631C6.87542 16.9522 7.10128 16.8619 7.26391 16.6812C7.4446 16.5005 7.53495 16.2656 7.53495 15.9765V13.9979L10.0556 13.4016V17.5214C10.0556 18.0635 9.86591 18.5243 9.48645 18.9037C9.12506 19.2832 8.66429 19.4729 8.10414 19.4729H1.9515Z" fill="#1E1E1E"/>
<path fill-rule="evenodd" clip-rule="evenodd" d="M19.0563 19.4729V0.5H27.1876C27.7116 0.5 28.1633 0.689729 28.5428 1.06919C28.9222 1.44864 29.112 1.90942 29.112 2.4515V8.27889C29.112 8.82097 28.9222 9.28174 28.5428 9.6612C28.1633 10.0407 27.7116 10.2304 27.1876 10.2304H26.6184L29.112 19.4729H26.6184L24.0977 10.2304H21.577V19.4729H19.0563ZM21.577 7.7097H25.6426C25.8956 7.7097 26.1215 7.61935 26.3202 7.43866C26.519 7.2399 26.6184 7.00499 26.6184 6.73395V3.99643C26.6184 3.72539 26.519 3.49953 26.3202 3.31883C26.1215 3.12007 25.8956 3.02068 25.6426 3.02068H21.577V7.7097Z" fill="#1E1E1E"/>
<path fill-rule="evenodd" clip-rule="evenodd" d="M37.2682 0.5C35.397 0.5 33.8802 2.01687 33.8802 3.88802V15.7461C33.8802 17.6172 35.397 19.1341 37.2682 19.1341H52.5143C54.3854 19.1341 55.9023 17.6172 55.9023 15.7461V3.88802C55.9023 2.01687 54.3854 0.5 52.5143 0.5H37.2682ZM52.5143 3.04101H37.2682C36.8004 3.04101 36.4212 3.42023 36.4212 3.88802V15.7461C36.4212 16.2139 36.8004 16.5931 37.2682 16.5931H52.5143C52.982 16.5931 53.3613 16.2139 53.3613 15.7461V3.88802C53.3613 3.42023 52.982 3.04101 52.5143 3.04101Z" fill="#1E1E1E"/>
<path d="M60.9843 0.5V19.4729H63.505V8.19758L66.0257 15.9223H68.5192L71.0399 8.19758V19.4729H73.5606V0.5H71.0399L67.2725 12.0735L63.505 0.5H60.9843Z" fill="#1E1E1E"/>
<path fill-rule="evenodd" clip-rule="evenodd" d="M85.6116 0.527104L81.7899 19.5H84.3106L84.9882 15.9494H88.593L89.3249 19.5H91.8455L88.0781 0.527104H85.6116ZM88.1594 13.4558H85.4761L86.8584 6.70685L88.1594 13.4558Z" fill="#1E1E1E"/>
</svg>
