<svg width="18" height="18" viewBox="0 0 18 18" fill="none" xmlns="http://www.w3.org/2000/svg">
<path d="M18.0001 4.00007V17.0001C18.0001 17.2653 17.8947 17.5196 17.7072 17.7072C17.5196 17.8947 17.2653 18.0001 17.0001 18.0001H4.00007C3.73485 18.0001 3.4805 17.8947 3.29296 17.7072C3.10542 17.5196 3.00007 17.2653 3.00007 17.0001C3.00007 16.7349 3.10542 16.4805 3.29296 16.293C3.4805 16.1054 3.73485 16.0001 4.00007 16.0001H14.5863L0.292568 1.70757C0.104927 1.51993 -0.000488283 1.26543 -0.000488281 1.00007C-0.000488279 0.734704 0.104927 0.480208 0.292568 0.292568C0.480208 0.104927 0.734704 -0.000488279 1.00007 -0.000488281C1.26543 -0.000488283 1.51993 0.104927 1.70757 0.292568L16.0001 14.5863V4.00007C16.0001 3.73485 16.1054 3.4805 16.293 3.29296C16.4805 3.10542 16.7349 3.00007 17.0001 3.00007C17.2653 3.00007 17.5196 3.10542 17.7072 3.29296C17.8947 3.4805 18.0001 3.73485 18.0001 4.00007Z" fill="#BC955A"/>
</svg>
